<svg id="visual" viewBox="0 0 900 600" width="900" height="600" xmlns="http://www.w3.org/2000/svg" xmlns:xlink="http://www.w3.org/1999/xlink" version="1.1"><g transform="translate(452.6662494616493 347.8415374726327)"><path d="M220.2 -313.9C251.9 -280 221 -170.9 253.3 -80.3C285.6 10.4 381.1 82.6 368.9 119.9C356.8 157.1 237.2 159.5 157.8 190.8C78.4 222.2 39.2 282.6 -4.8 289.2C-48.8 295.8 -97.6 248.6 -179.4 218C-261.2 187.4 -375.9 173.5 -375.3 132.2C-374.7 90.8 -258.7 22.2 -235.7 -85.2C-212.7 -192.7 -282.7 -339.1 -258.9 -375.5C-235.1 -411.9 -117.6 -338.5 -11.7 -322.4C94.2 -306.4 188.5 -347.8 220.2 -313.9" fill="#5cd2f2"></path></g></svg>