<svg id="visual" viewBox="0 0 900 600" width="900" height="600" xmlns="http://www.w3.org/2000/svg" xmlns:xlink="http://www.w3.org/1999/xlink" version="1.1"><g><g transform="translate(866 178)"><path d="M69.2 -23.4C78 4.6 65.4 38.6 41.2 56.1C16.9 73.6 -19 74.6 -44.1 57.2C-69.1 39.8 -83.3 4.1 -74.2 -24.4C-65 -52.8 -32.5 -74 -1.1 -73.6C30.2 -73.2 60.4 -51.3 69.2 -23.4Z" stroke="#39f70f" fill="none" stroke-width="20"></path></g><g transform="translate(231 539)"><path d="M64.7 -18.4C74.7 10 67.6 46.6 46 62.1C24.3 77.5 -11.8 71.8 -34.7 53.7C-57.7 35.7 -67.4 5.3 -59.4 -20.2C-51.4 -45.7 -25.7 -66.5 0.8 -66.7C27.3 -67 54.6 -46.8 64.7 -18.4Z" stroke="#39f70f" fill="none" stroke-width="20"></path></g><g transform="translate(607 36)"><path d="M39.9 -12.8C45.6 4.5 39.8 25.6 26 35.5C12.3 45.5 -9.4 44.2 -22.4 34C-35.3 23.8 -39.4 4.8 -34.3 -11.7C-29.1 -28.3 -14.5 -42.5 1.3 -42.9C17.1 -43.3 34.3 -30 39.9 -12.8Z" stroke="#39f70f" fill="none" stroke-width="20"></path></g><g transform="translate(108 240)"><path d="M46.4 -15.6C52.9 5.1 46.1 29.6 29.3 42.2C12.4 54.9 -14.4 55.8 -31.5 43.4C-48.6 30.9 -56 5.2 -49.1 -15.9C-42.2 -37 -21.1 -53.4 -0.6 -53.2C19.9 -53 39.8 -36.2 46.4 -15.6Z" stroke="#39f70f" fill="none" stroke-width="20"></path></g><g transform="translate(410 234)"><path d="M56.6 -20.2C64 4.2 54 32.4 33.7 47.4C13.4 62.4 -17.2 64.1 -38.1 49.6C-59 35.1 -70.1 4.4 -62.1 -20.8C-54.1 -46.1 -27.1 -65.8 -1.2 -65.4C24.6 -65 49.3 -44.5 56.6 -20.2Z" stroke="#39f70f" fill="none" stroke-width="20"></path></g><g transform="translate(535 509)"><path d="M69.4 -22.3C78.3 4.9 65.9 39.2 42.7 55.2C19.5 71.3 -14.5 69 -39.4 51.6C-64.3 34.1 -80.1 1.5 -72 -24.5C-63.9 -50.6 -31.9 -70 -0.8 -69.7C30.2 -69.4 60.5 -49.5 69.4 -22.3Z" stroke="#39f70f" fill="none" stroke-width="20"></path></g></g></svg>