<svg id="visual" viewBox="0 0 900 600" width="900" height="600" xmlns="http://www.w3.org/2000/svg" xmlns:xlink="http://www.w3.org/1999/xlink" version="1.1"><g fill="#d52d49"><circle r="49" cx="6" cy="249"></circle><circle r="16" cx="381" cy="360"></circle><circle r="25" cx="228" cy="575"></circle><circle r="25" cx="182" cy="3"></circle><circle r="33" cx="485" cy="187"></circle><circle r="21" cx="4" cy="457"></circle><circle r="46" cx="785" cy="45"></circle><circle r="43" cx="754" cy="519"></circle><circle r="46" cx="40" cy="60"></circle><circle r="44" cx="234" cy="180"></circle><circle r="19" cx="624" cy="200"></circle><circle r="27" cx="333" cy="495"></circle><circle r="32" cx="348" cy="264"></circle><circle r="40" cx="533" cy="333"></circle><circle r="43" cx="867" cy="249"></circle><circle r="30" cx="189" cy="319"></circle><circle r="45" cx="299" cy="7"></circle><circle r="32" cx="152" cy="449"></circle><circle r="36" cx="64" cy="161"></circle><circle r="28" cx="631" cy="501"></circle><circle r="22" cx="694" cy="291"></circle><circle r="44" cx="870" cy="463"></circle><circle r="19" cx="389" cy="107"></circle></g></svg>