<svg id="visual" viewBox="0 0 900 600" width="900" height="600" xmlns="http://www.w3.org/2000/svg" xmlns:xlink="http://www.w3.org/1999/xlink" version="1.1"><g transform="translate(428.2301478961883 286.3215449739727)"><path d="M137.3 -183.3C184.8 -154.4 235.1 -123.6 248.3 -81.1C261.5 -38.6 237.8 15.5 210.2 58.4C182.6 101.4 151.3 133.2 115.6 169.3C79.9 205.4 40 245.7 -8.7 257.7C-57.4 269.7 -114.8 253.4 -150.5 217.3C-186.1 181.2 -200.1 125.4 -205.8 74.7C-211.5 24 -208.9 -21.5 -191.6 -58.4C-174.3 -95.3 -142.3 -123.5 -107.9 -156.6C-73.5 -189.8 -36.7 -227.9 4.1 -233.5C44.9 -239.1 89.7 -212.2 137.3 -183.3" fill="#c60ae0"></path></g></svg>