<svg id="visual" viewBox="0 0 960 540" width="960" height="540" xmlns="http://www.w3.org/2000/svg" xmlns:xlink="http://www.w3.org/1999/xlink" version="1.1"><path d="M0 370L32 337.2C64 304.3 128 238.7 192 224.7C256 210.7 320 248.3 384 255.5C448 262.7 512 239.3 576 221.7C640 204 704 192 768 203.7C832 215.3 896 250.7 928 268.3L960 286L960 541L928 541C896 541 832 541 768 541C704 541 640 541 576 541C512 541 448 541 384 541C320 541 256 541 192 541C128 541 64 541 32 541L0 541Z" fill="#ee89b5"></path><path d="M0 378L32 385.3C64 392.7 128 407.3 192 401.7C256 396 320 370 384 357.3C448 344.7 512 345.3 576 362.3C640 379.3 704 412.7 768 401.5C832 390.3 896 334.7 928 306.8L960 279L960 541L928 541C896 541 832 541 768 541C704 541 640 541 576 541C512 541 448 541 384 541C320 541 256 541 192 541C128 541 64 541 32 541L0 541Z" fill="#e668bb"></path><path d="M0 338L32 349.5C64 361 128 384 192 385.3C256 386.7 320 366.3 384 352.7C448 339 512 332 576 350.8C640 369.7 704 414.3 768 430.5C832 446.7 896 434.3 928 428.2L960 422L960 541L928 541C896 541 832 541 768 541C704 541 640 541 576 541C512 541 448 541 384 541C320 541 256 541 192 541C128 541 64 541 32 541L0 541Z" fill="#d149ca"></path><path d="M0 423L32 432.7C64 442.3 128 461.7 192 462.8C256 464 320 447 384 451.3C448 455.7 512 481.3 576 487.5C640 493.7 704 480.3 768 474.2C832 468 896 469 928 469.5L960 470L960 541L928 541C896 541 832 541 768 541C704 541 640 541 576 541C512 541 448 541 384 541C320 541 256 541 192 541C128 541 64 541 32 541L0 541Z" fill="#ab33e0"></path></svg>